<svg width="740" height="485" viewBox="0 0 740 485" fill="none" xmlns="http://www.w3.org/2000/svg">
<rect x="211" y="29.9653" width="241.5" height="151.535" rx="3" fill="url(#paint0_linear)"/>
<rect x="305.5" y="57.75" width="22.922" height="22.922" rx="3" fill="#D74D4E"/>
<rect x="289.135" y="71.5781" width="22.922" height="22.922" rx="3" fill="url(#paint1_linear)"/>
<rect x="348.135" y="121.578" width="22.922" height="22.922" rx="3" fill="url(#paint2_linear)"/>
<rect x="398.135" y="121.578" width="22.922" height="22.922" rx="3" fill="url(#paint3_linear)"/>
<rect x="368.057" y="81.0391" width="22.922" height="22.922" stroke="white" stroke-width="3.1104" stroke-linecap="round" stroke-linejoin="round"/>
<rect x="239" y="98.656" width="22.922" height="22.922" stroke="white" stroke-width="3.1104" stroke-linecap="round" stroke-linejoin="round"/>
<path fill-rule="evenodd" clip-rule="evenodd" d="M70.9162 268.982L70.4634 373.149C70.4634 373.149 68.7162 387.425 68.7162 400.975C68.7162 414.525 68.2452 452.066 68.2452 452.066H86.6417L100.013 297.586H105.097L106.02 370.913C106.02 370.913 103.126 391.693 103.094 406.704C103.061 421.716 104.764 452.066 104.764 452.066H123.106L128.016 383.645L136.527 265.032L70.9162 268.982Z" fill="#2F2C61"/>
<mask id="mask0" mask-type="alpha" maskUnits="userSpaceOnUse" x="68" y="265" width="69" height="188">
<path fill-rule="evenodd" clip-rule="evenodd" d="M70.9162 268.982L70.4634 373.149C70.4634 373.149 68.7162 387.425 68.7162 400.975C68.7162 414.525 68.2452 452.066 68.2452 452.066H86.6417L100.013 297.586H105.097L106.02 370.913C106.02 370.913 103.126 391.693 103.094 406.704C103.061 421.716 104.764 452.066 104.764 452.066H123.106L128.016 383.645L136.527 265.032L70.9162 268.982Z" fill="white"/>
</mask>
<g mask="url(#mask0)">
<path opacity="0.1" fill-rule="evenodd" clip-rule="evenodd" d="M140.402 306.52L60.1724 340.541L66.2135 276.843L147.964 274.041L140.402 306.52Z" fill="#1F1950"/>
</g>
<path d="M109.159 451.663L109.032 458.118C109.006 459.428 110.022 460.515 111.331 460.555C118.663 460.781 140.659 461.329 140.5 459.75C140.309 457.856 123.017 452.032 123.017 452.032L109.159 451.663Z" fill="#2D1D2A"/>
<path d="M73.7687 451.663L73.6415 458.139C73.616 459.44 74.6206 460.523 75.9213 460.573C82.6231 460.826 101.5 461.395 101.5 459.75C101.5 457.75 87.6268 452.032 87.6268 452.032L73.7687 451.663Z" fill="#2D1D2A"/>
<path fill-rule="evenodd" clip-rule="evenodd" d="M136.415 186.357L136.544 217.644L165.415 220.357L154.544 227.644C154.544 227.644 116.121 261.6 113.544 252.644C110.966 243.688 109.961 154.501 122.104 151.795C147.415 146.357 136.415 186.357 136.415 186.357Z" fill="url(#paint4_linear)"/>
<path fill-rule="evenodd" clip-rule="evenodd" d="M90.7566 142.956C87.0009 143.379 76.9788 151.365 75.543 158.644C74.1073 165.922 70.5006 224.532 70.5006 224.532L65.2208 268.898C64.9415 271.245 66.5471 273.393 68.8853 273.737C78.1752 275.103 100.896 277.93 115.079 275.319C133.251 271.973 133.486 282.188 139.577 270.479C145.669 258.77 133.215 250.844 132.132 231.041C131.05 211.238 136.437 172.235 136.437 172.235C136.437 172.235 137.005 158.79 132.132 152.051C127.26 145.313 94.5124 142.534 90.7566 142.956Z" fill="url(#paint5_linear)"/>
<mask id="mask1" mask-type="alpha" maskUnits="userSpaceOnUse" x="65" y="142" width="77" height="135">
<path fill-rule="evenodd" clip-rule="evenodd" d="M90.7566 142.956C87.0009 143.379 76.9788 151.365 75.543 158.644C74.1073 165.922 70.5006 224.532 70.5006 224.532L65.2208 268.898C64.9415 271.245 66.5471 273.393 68.8853 273.737C78.1752 275.103 100.896 277.93 115.079 275.319C133.251 271.973 133.486 282.188 139.577 270.479C145.669 258.77 133.215 250.844 132.132 231.041C131.05 211.238 136.437 172.235 136.437 172.235C136.437 172.235 137.005 158.79 132.132 152.051C127.26 145.313 94.5124 142.534 90.7566 142.956Z" fill="white"/>
</mask>
<g mask="url(#mask1)">
<path fill-rule="evenodd" clip-rule="evenodd" d="M107.543 142.644C107.543 143.644 106.626 161.064 117.543 160.644C128.46 160.224 119.239 142.768 119.239 142.768C119.239 142.768 107.543 141.644 107.543 142.644Z" fill="url(#paint6_linear)"/>
<path fill-rule="evenodd" clip-rule="evenodd" d="M134.543 173.644H123.543V179.417C123.543 182.304 125.883 184.644 128.77 184.644C131.473 184.644 133.73 182.582 133.975 179.89L134.543 173.644Z" fill="url(#paint7_linear)"/>
</g>
<path fill-rule="evenodd" clip-rule="evenodd" d="M192.628 182.314C193.29 181.114 192.422 179.644 191.052 179.644H145.343C144.032 179.644 142.825 180.356 142.191 181.504L116.375 228.274C115.713 229.474 116.581 230.944 117.951 230.944H163.66C164.971 230.944 166.178 230.231 166.812 229.083L192.628 182.314Z" fill="#3A3771"/>
<path fill-rule="evenodd" clip-rule="evenodd" d="M136.277 118.243C136.277 118.243 144 116.75 146.871 112.504C149.742 108.259 151 98.7501 138 97.7501C128.236 96.999 106 97.7501 108 109.75C110 121.75 109 121.75 110 126.75C111 131.75 113.995 132.681 113.995 132.681L123.613 123.581L132.167 121.128L136.277 118.243Z" fill="url(#paint8_linear)"/>
<mask id="mask2" mask-type="alpha" maskUnits="userSpaceOnUse" x="107" y="97" width="42" height="36">
<path fill-rule="evenodd" clip-rule="evenodd" d="M136.277 118.243C136.277 118.243 144 116.75 146.871 112.504C149.742 108.259 151 98.7501 138 97.7501C128.236 96.999 106 97.7501 108 109.75C110 121.75 109 121.75 110 126.75C111 131.75 113.995 132.681 113.995 132.681L123.613 123.581L132.167 121.128L136.277 118.243Z" fill="white"/>
</mask>
<g mask="url(#mask2)">
</g>
<path d="M122.546 129.819L113.04 128.143L109.836 145.101C109.836 145.101 110.114 157.962 116.991 157.962C123.869 157.962 119.62 146.589 119.62 146.589L122.546 129.819Z" fill="#FFA9AA"/>
<path fill-rule="evenodd" clip-rule="evenodd" d="M140.162 117.156C141.373 117.695 138.559 123.389 137.433 128.103C136.308 132.812 136.873 136.542 136.157 136.686C134.724 136.975 130.784 135.346 130.784 135.346C130.784 135.346 130.869 145.61 127.247 145.324C123.625 145.039 115.949 137.985 115.035 136.313C114.121 134.641 111.713 127.338 111.713 127.338C111.713 127.338 110.266 124.032 110.188 121.31C110.11 118.588 112.229 116.725 114.516 118.079C116.803 119.432 115.828 122.979 117.226 122.957C119.771 122.917 118.564 115.957 123.102 114.092C125.257 113.207 124.371 115.782 128.781 116.701C133.191 117.62 138.484 116.408 140.162 117.156Z" fill="#FEC0C1"/>
<mask id="mask3" mask-type="alpha" maskUnits="userSpaceOnUse" x="110" y="113" width="31" height="33">
<path fill-rule="evenodd" clip-rule="evenodd" d="M140.162 117.156C141.373 117.695 138.559 123.389 137.433 128.103C136.308 132.812 136.873 136.542 136.157 136.686C134.724 136.975 130.784 135.346 130.784 135.346C130.784 135.346 130.869 145.61 127.247 145.324C123.625 145.039 115.949 137.985 115.035 136.313C114.121 134.641 111.713 127.338 111.713 127.338C111.713 127.338 110.266 124.032 110.188 121.31C110.11 118.588 112.229 116.725 114.516 118.079C116.803 119.432 115.828 122.979 117.226 122.957C119.771 122.917 118.564 115.957 123.102 114.092C125.257 113.207 124.371 115.782 128.781 116.701C133.191 117.62 138.484 116.408 140.162 117.156Z" fill="white"/>
</mask>
<g mask="url(#mask3)">
</g>
<path fill-rule="evenodd" clip-rule="evenodd" d="M111.084 212.227C111.084 212.227 131.544 206.644 133.544 206.644C135.544 206.644 141.529 206.656 141.544 208.644C141.547 209.145 138.544 218.644 138.544 218.644C138.544 218.644 129.957 222.616 129.226 222.614C126.802 222.609 119.172 221.737 119.172 221.737L111.084 212.227Z" fill="#FEC0C1"/>
<path fill-rule="evenodd" clip-rule="evenodd" d="M93.3599 171.009L82.6326 217.116L123.544 207.644L118.544 223.644C118.544 223.644 67.1213 242.6 64.5439 233.644C61.9666 224.688 70.4896 147.188 82.6326 144.481C101.038 139.647 93.3599 171.009 93.3599 171.009Z" fill="url(#paint9_linear)"/>
<path d="M116.454 211.942L113.351 227.448" stroke="#5775CE" stroke-width="1.1"/>
<path d="M220.5 351.404C220.5 299.509 262.57 257.439 314.466 257.439H323.5C335.098 257.439 344.5 266.841 344.5 278.439V350.439C344.5 359.275 337.337 366.439 328.5 366.439H235.534C227.231 366.439 220.5 359.708 220.5 351.404Z" fill="#A26541"/>
<path opacity="0.5" d="M269.5 366.439L258.5 459.439" stroke="#2D1D2A" stroke-width="2.99376" stroke-linecap="round"/>
<path opacity="0.5" d="M237.5 366.439L226.5 459.439" stroke="#2D1D2A" stroke-width="2.99376" stroke-linecap="round"/>
<path opacity="0.5" d="M322.5 366.439L334.5 459.439" stroke="#2D1D2A" stroke-width="2.99376" stroke-linecap="round"/>
<path opacity="0.5" d="M290.5 366.439L301.5 459.439" stroke="#2D1D2A" stroke-width="2.99376" stroke-linecap="round"/>
<path d="M246.5 257.439H318.5V338.439C318.5 340.648 316.709 342.439 314.5 342.439H246.5V257.439Z" fill="url(#paint10_linear)"/>
<rect x="97.5" y="275.439" width="124" height="5" fill="url(#paint11_linear)"/>
<path opacity="0.5" fill-rule="evenodd" clip-rule="evenodd" d="M73.5 228.439H155.5L183.5 281.439H101.5L73.5 228.439Z" fill="url(#paint12_linear)"/>
<path fill-rule="evenodd" clip-rule="evenodd" d="M70.5 228.439H152.5L180.5 281.439H98.5L70.5 228.439Z" fill="url(#paint13_linear)"/>
<path fill-rule="evenodd" clip-rule="evenodd" d="M70.5 228.439L180.5 281.439H98.5L70.5 228.439Z" fill="url(#paint14_linear)"/>
<ellipse cx="123.5" cy="254.939" rx="5" ry="6.5" transform="rotate(-40 123.5 254.939)" fill="white"/>
<path fill-rule="evenodd" clip-rule="evenodd" d="M231.254 261.68V279.704H271.703C271.703 279.704 281.806 280.371 283.995 265.758C286.183 251.144 262.567 210.941 259.5 209.418C256.433 207.894 252.5 209.418 250.5 215.418C248.5 221.418 262.245 260.813 262.245 260.813L231.254 261.68Z" fill="#D74D4E"/>
<path fill-rule="evenodd" clip-rule="evenodd" d="M195.146 265.311C194.165 265.212 193.183 265.479 192.387 266.06L187.833 269.384L178.391 275.933H204.254L232.887 275.439L232.254 266.68H208.757L195.146 265.311Z" fill="url(#paint15_linear)"/>
<path fill-rule="evenodd" clip-rule="evenodd" d="M239.5 281.417V260.417L230.5 260.417V280.417L239.5 281.417Z" fill="#F36465"/>
<path opacity="0.2" fill-rule="evenodd" clip-rule="evenodd" d="M258.5 308.418C258.5 308.418 246.5 302.418 243.5 300.418C240.5 298.418 252.5 291.418 252.5 291.418L265.5 298.418L268.5 306.418L258.5 308.418Z" fill="url(#paint16_linear)"/>
<path d="M168.37 441.46L164.5 453.75L150.5 461.439L177.5 460.75L182.5 441.439L168.37 441.46Z" fill="#2D1D2A"/>
<path d="M235.5 441.5L240.5 452.5L227.5 461.5H256.5L250.5 441.5L235.5 441.5Z" fill="#2D1D2A"/>
<path fill-rule="evenodd" clip-rule="evenodd" d="M248.5 293.418L244.5 305.418L189.799 331.939C182.757 335.354 177.934 342.115 176.998 349.885L165 449.5H183L214.5 352.418L276.5 326.418L281.5 298.418L248.5 293.418Z" fill="url(#paint17_linear)"/>
<path opacity="0.2" fill-rule="evenodd" clip-rule="evenodd" d="M244.949 294.153L244.063 299.237C244.063 299.237 268 315.521 279.242 319.669C290.484 323.818 303.931 326.719 306.583 325.343C309.812 323.667 308.299 312.847 308.299 312.847L244.949 294.153Z" fill="url(#paint18_linear)"/>
<path fill-rule="evenodd" clip-rule="evenodd" d="M263.5 298.418L257.5 312.418L215.038 330.037C198.686 336.821 191.327 355.899 198.887 371.907L236 450.5L254 449.5L232.5 355.418L285.532 344.521C297.157 342.132 305.5 331.9 305.5 320.032V299.418L263.5 298.418Z" fill="url(#paint19_linear)"/>
<path fill-rule="evenodd" clip-rule="evenodd" d="M292.203 206.851C295.476 207.511 299.339 211.787 300.044 218.283C300.749 224.779 303.773 279.98 303.773 279.98C303.773 279.98 307.5 298.418 307.5 301.418C307.5 304.418 282.5 301.418 273.5 300.418C264.5 299.418 242.529 292.788 242.529 292.788C242.529 292.788 253.5 255.708 253.5 246.418C253.5 228.418 251.513 212.564 253.302 210.504C258.108 204.967 288.929 206.191 292.203 206.851Z" fill="#BD3246"/>
<mask id="mask4" mask-type="alpha" maskUnits="userSpaceOnUse" x="242" y="206" width="66" height="97">
<path fill-rule="evenodd" clip-rule="evenodd" d="M292.203 206.851C295.476 207.511 299.339 211.787 300.044 218.283C300.749 224.779 303.773 279.98 303.773 279.98C303.773 279.98 307.5 298.418 307.5 301.418C307.5 304.418 282.5 301.418 273.5 300.418C264.5 299.418 242.529 292.788 242.529 292.788C242.529 292.788 253.5 255.708 253.5 246.418C253.5 228.418 251.513 212.564 253.302 210.504C258.108 204.967 288.929 206.191 292.203 206.851Z" fill="white"/>
</mask>
<g mask="url(#mask4)">
<path fill-rule="evenodd" clip-rule="evenodd" d="M286.5 220.418L303.768 280.226C303.768 280.226 313.583 323.378 309.449 330.253C305.316 337.128 263.981 322.685 263.981 322.685C263.981 322.685 279.004 299.285 282.447 280.226C285.89 261.168 286.5 220.418 286.5 220.418Z" fill="#AC293C"/>
</g>
<g filter="url(#filter0_d)">
<path fill-rule="evenodd" clip-rule="evenodd" d="M278.842 176.04C278.842 176.04 276.642 195.84 274.442 199.14C272.242 202.44 266.742 193.64 266.742 193.64L265.642 181.54L278.842 176.04Z" fill="#2D1D2A"/>
</g>
<path d="M264.505 195.212L273.25 192.274L275.541 207.94L270.581 216.868C270.248 217.468 269.616 217.84 268.93 217.84C265.831 217.84 263.759 214.65 265.017 211.819L266.741 207.94L264.505 195.212Z" fill="#FDA181"/>
<path fill-rule="evenodd" clip-rule="evenodd" d="M256.103 175.103C254.826 174.992 252.441 177.505 252.441 177.505C252.441 177.505 251.838 183.791 251.341 185.205C249.776 189.659 249.03 191.162 249.141 191.805C249.37 193.135 253.541 192.905 253.541 192.905C253.541 192.905 255.048 202.591 257.941 203.905C260.834 205.219 264.233 202.594 265.641 201.705C267.049 200.817 273.341 195.839 273.341 195.839C273.341 195.839 269.152 181.336 265.477 179.609C261.802 177.883 257.704 175.244 256.103 175.103Z" fill="#FDA181"/>
<circle cx="273.959" cy="188.733" r="4.72321" fill="#FDA181"/>
<g filter="url(#filter1_d)">
<path fill-rule="evenodd" clip-rule="evenodd" d="M261.241 178.24C261.241 178.24 261.241 181.54 264.541 182.64C267.841 183.74 267.841 184.84 268.941 185.94C270.041 187.04 270.041 191.44 271.141 191.44C272.241 191.44 273.341 185.94 273.341 185.94C273.341 185.94 276.641 184.84 278.841 179.34C281.041 173.84 279.941 163.94 271.141 165.04C262.341 166.14 263.441 168.34 257.941 165.04C252.441 161.74 249.141 165.04 248.041 169.44C246.941 173.84 249.141 177.14 252.441 178.24C255.741 179.34 261.241 178.24 261.241 178.24Z" fill="#2D1D2A"/>
</g>
<path fill-rule="evenodd" clip-rule="evenodd" d="M259.254 265.68L261.254 281.705H307.703C307.703 281.705 317.806 282.371 319.995 267.758C322.183 253.145 299.5 210.418 295.5 208.418C291.5 206.418 286.5 208.418 285.5 214.418C284.5 220.418 298.245 263.813 298.245 263.813L259.254 265.68Z" fill="#D74D4E"/>
<path d="M201.395 280.834C201.395 275.864 205.424 271.834 210.395 271.834H217.395C222.365 271.834 226.395 275.864 226.395 280.834H201.395Z" fill="white"/>
<path fill-rule="evenodd" clip-rule="evenodd" d="M260.58 269.695L237.898 270.898L211.395 268.788L212.391 271.48L222.198 273.384L212.391 280.933H261.58L260.58 269.695Z" fill="#FDA181"/>
<path d="M297.246 263.813L304.158 263.582" stroke="#A61C30"/>
<path d="M59.0352 289.508L39.0352 460.016" stroke="#2D1D2A" stroke-width="2.99376" stroke-linecap="round"/>
<path d="M118.913 289.508L138.913 460.016" stroke="#2D1D2A" stroke-width="2.99376" stroke-linecap="round"/>
<path d="M44.8145 419.101H133.453" stroke="#2D1D2A" stroke-width="2.99376" stroke-linecap="round"/>
<path d="M299.035 289.508L279.035 460.016" stroke="#2D1D2A" stroke-width="2.99376" stroke-linecap="round"/>
<path d="M358.913 289.508L378.913 460.016" stroke="#2D1D2A" stroke-width="2.99376" stroke-linecap="round"/>
<path d="M284.814 419.101H373.453" stroke="#2D1D2A" stroke-width="2.99376" stroke-linecap="round"/>
<path d="M48.5 293.587C48.5 286.326 54.3868 280.439 61.6486 280.439H367.672C374.934 280.439 380.82 286.326 380.82 293.587C380.82 293.781 380.663 293.939 380.469 293.939H48.8514C48.6573 293.939 48.5 293.781 48.5 293.587Z" fill="#A26541"/>
<path d="M115.406 293.761C115.406 286.403 121.371 280.439 128.728 280.439L367.499 280.439C374.856 280.439 380.821 286.403 380.821 293.761C380.821 293.859 380.741 293.939 380.643 293.939H115.584C115.486 293.939 115.406 293.859 115.406 293.761Z" fill="url(#paint20_linear)"/>
<path fill-rule="evenodd" clip-rule="evenodd" d="M268.5 280.418L267.5 263.418H258.5L259.5 280.418H268.5Z" fill="#F36465"/>
<path d="M499.5 350.737C499.5 298.841 541.57 256.771 593.466 256.771H602.5C614.098 256.771 623.5 266.173 623.5 277.771V349.771C623.5 358.608 616.337 365.771 607.5 365.771H514.534C506.231 365.771 499.5 359.04 499.5 350.737Z" fill="#A26541"/>
<path opacity="0.5" d="M548.5 365.771L537.5 458.771" stroke="#2D1D2A" stroke-width="2.99376" stroke-linecap="round"/>
<path opacity="0.5" d="M516.5 365.771L505.5 458.771" stroke="#2D1D2A" stroke-width="2.99376" stroke-linecap="round"/>
<path opacity="0.5" d="M601.5 365.771L613.5 458.771" stroke="#2D1D2A" stroke-width="2.99376" stroke-linecap="round"/>
<path opacity="0.5" d="M569.5 365.771L580.5 458.771" stroke="#2D1D2A" stroke-width="2.99376" stroke-linecap="round"/>
<path d="M525.5 256.771H597.5V337.771C597.5 339.98 595.709 341.771 593.5 341.771H525.5V256.771Z" fill="url(#paint21_linear)"/>
<rect x="367.5" y="274.771" width="124" height="5" fill="url(#paint22_linear)"/>
<path opacity="0.5" fill-rule="evenodd" clip-rule="evenodd" d="M343.5 227.771H425.5L453.5 280.771H371.5L343.5 227.771Z" fill="url(#paint23_linear)"/>
<path fill-rule="evenodd" clip-rule="evenodd" d="M340.5 227.771H422.5L450.5 280.771H368.5L340.5 227.771Z" fill="url(#paint24_linear)"/>
<path fill-rule="evenodd" clip-rule="evenodd" d="M340.5 227.771L450.5 280.771H368.5L340.5 227.771Z" fill="url(#paint25_linear)"/>
<ellipse cx="393.5" cy="254.271" rx="5" ry="6.5" transform="rotate(-40 393.5 254.271)" fill="white"/>
<path fill-rule="evenodd" clip-rule="evenodd" d="M501.254 261.012V279.037H541.703C541.703 279.037 551.806 279.704 553.995 265.09C556.183 250.477 534.312 222.518 531.245 220.994C528.179 219.471 522.633 219.729 520.057 224.528C517.481 229.327 532.245 260.145 532.245 260.145L501.254 261.012Z" fill="#2F2C61"/>
<path d="M508.343 272.93L506.131 259.55" stroke="#3A3771"/>
<path fill-rule="evenodd" clip-rule="evenodd" d="M465.146 264.644C464.165 264.545 463.183 264.812 462.387 265.393L457.833 268.717L448.391 275.266H474.254L502.887 274.771L502.254 266.012H478.757L465.146 264.644Z" fill="url(#paint26_linear)"/>
<path d="M481.123 448.54C481.123 448.54 482.644 450.966 482.753 452.593C482.821 453.625 482.433 456.02 482.141 457.631C481.969 458.574 481.176 459.266 480.221 459.331C475.972 459.618 464.596 460.421 461.473 460.979C457.61 461.668 448.255 461.719 448.184 460.357C448.048 457.771 466.322 451.738 466.322 451.738L481.123 448.54Z" fill="#2D1D2A"/>
<path fill-rule="evenodd" clip-rule="evenodd" d="M464.326 410.271C464.326 410.271 470.291 443.197 470.024 446.125C469.758 449.053 467.179 451.274 467.179 451.274C467.179 451.274 458.886 454.338 462.397 454.869C465.909 455.399 480.661 449.172 480.661 449.172L481 414.895L464.326 410.271Z" fill="url(#paint27_linear)"/>
<path d="M526.566 437.769C526.566 437.769 529.472 439.939 530.342 441.382C530.901 442.311 531.749 444.816 532.282 446.484C532.58 447.416 532.185 448.421 531.343 448.92C528.128 450.827 520.427 455.436 517.974 457.292C514.845 459.661 506.533 463.953 505.851 462.771C504.556 460.529 516.006 449.061 516.006 449.061L526.566 437.769Z" fill="#2D1D2A"/>
<path fill-rule="evenodd" clip-rule="evenodd" d="M497.482 412.434C497.482 412.434 515.357 438.746 516.448 441.476C517.54 444.206 516.25 447.356 516.25 447.356C516.25 447.356 512.693 452.601 515.934 451.422C519.175 450.244 526.372 438.272 526.372 438.272L514.679 409.803C514.679 409.803 513.901 411.039 509.803 411.666C505.706 412.292 497.482 412.434 497.482 412.434Z" fill="#FDA181"/>
<path fill-rule="evenodd" clip-rule="evenodd" d="M518.5 293.75C518.5 293.75 518.5 299.75 512.5 304.75C506.5 309.75 450.5 328.75 448.5 336.75C446.5 344.75 467.5 442.75 467.5 442.75L483 442.5L477.5 352.75C477.5 352.75 538.5 335.75 546.5 314.75C554.5 293.75 518.5 293.75 518.5 293.75Z" fill="url(#paint28_linear)"/>
<mask id="mask5" mask-type="alpha" maskUnits="userSpaceOnUse" x="448" y="293" width="100" height="150">
<path fill-rule="evenodd" clip-rule="evenodd" d="M518.5 293.75C518.5 293.75 518.5 299.75 512.5 304.75C506.5 309.75 450.5 328.75 448.5 336.75C446.5 344.75 467.5 442.75 467.5 442.75L483 442.5L477.5 352.75C477.5 352.75 538.5 335.75 546.5 314.75C554.5 293.75 518.5 293.75 518.5 293.75Z" fill="white"/>
</mask>
<g mask="url(#mask5)">
<path opacity="0.2" fill-rule="evenodd" clip-rule="evenodd" d="M528.5 307.75C528.5 307.75 516.5 301.75 513.5 299.75C510.5 297.75 522.5 290.75 522.5 290.75L535.5 297.75L538.5 305.75L528.5 307.75Z" fill="url(#paint29_linear)"/>
</g>
<path fill-rule="evenodd" clip-rule="evenodd" d="M533.501 297.75C533.501 297.75 533.501 305.75 527.501 307.75C521.501 309.75 461.501 330.75 458.501 341.75C455.501 352.75 511.001 440.5 511.001 440.5L526.001 432.5L500.501 355.75C500.501 355.75 557.501 353.75 570.501 335.75C583.501 317.75 570.501 291.75 570.501 291.75L533.501 297.75Z" fill="url(#paint30_linear)"/>
<mask id="mask6" mask-type="alpha" maskUnits="userSpaceOnUse" x="458" y="291" width="119" height="150">
<path fill-rule="evenodd" clip-rule="evenodd" d="M533.501 297.75C533.501 297.75 533.501 305.75 527.501 307.75C521.501 309.75 461.501 330.75 458.501 341.75C455.501 352.75 511.001 440.5 511.001 440.5L526.001 432.5L500.501 355.75C500.501 355.75 557.501 353.75 570.501 335.75C583.501 317.75 570.501 291.75 570.501 291.75L533.501 297.75Z" fill="white"/>
</mask>
<g mask="url(#mask6)">
<path opacity="0.2" fill-rule="evenodd" clip-rule="evenodd" d="M514.949 293.485L514.063 298.57C514.063 298.57 538 314.853 549.242 319.002C560.484 323.15 573.931 326.051 576.583 324.675C579.812 322.999 578.299 312.18 578.299 312.18L514.949 293.485Z" fill="url(#paint31_linear)"/>
</g>
<path fill-rule="evenodd" clip-rule="evenodd" d="M562.203 206.184C565.477 206.843 569.339 211.119 570.044 217.615C570.75 224.112 573.773 279.313 573.773 279.313C573.773 279.313 581.667 302.494 579.383 310.532C577.099 318.57 553.738 309.562 541.553 306.206C529.369 302.851 512.529 292.121 512.529 292.121C512.529 292.121 523.302 269.799 516.417 251.616C512.095 240.2 515.336 231.254 518.557 223.004C520.465 218.114 521.513 211.896 523.302 209.836C528.109 204.3 558.929 205.524 562.203 206.184Z" fill="#3A3771"/>
<mask id="mask7" mask-type="alpha" maskUnits="userSpaceOnUse" x="512" y="205" width="68" height="109">
<path fill-rule="evenodd" clip-rule="evenodd" d="M562.203 206.184C565.477 206.843 569.339 211.119 570.044 217.615C570.75 224.112 573.773 279.313 573.773 279.313C573.773 279.313 581.667 302.494 579.383 310.532C577.099 318.57 553.738 309.562 541.553 306.206C529.369 302.851 512.529 292.121 512.529 292.121C512.529 292.121 523.302 269.799 516.417 251.616C512.095 240.2 515.336 231.254 518.557 223.004C520.465 218.114 521.513 211.896 523.302 209.836C528.109 204.3 558.929 205.524 562.203 206.184Z" fill="white"/>
</mask>
<g mask="url(#mask7)">
<path fill-rule="evenodd" clip-rule="evenodd" d="M554.7 223.345L573.768 279.559C573.768 279.559 583.582 322.71 579.449 329.585C575.316 336.461 533.981 322.017 533.981 322.017C533.981 322.017 549.004 298.618 552.447 279.559C555.89 260.5 554.7 223.345 554.7 223.345Z" fill="#2F2C61"/>
<path fill-rule="evenodd" clip-rule="evenodd" d="M532.459 208.184C532.459 208.184 534.209 206.871 539.01 206.859C543.81 206.847 548.731 207.001 548.731 207.001C548.731 207.001 539.101 229.316 531.763 228.604C524.425 227.892 532.459 208.184 532.459 208.184Z" fill="#FDA181"/>
<mask id="mask8" mask-type="alpha" maskUnits="userSpaceOnUse" x="528" y="206" width="21" height="23">
<path fill-rule="evenodd" clip-rule="evenodd" d="M532.459 208.184C532.459 208.184 534.209 206.871 539.01 206.859C543.81 206.847 548.731 207.001 548.731 207.001C548.731 207.001 539.101 229.316 531.763 228.604C524.425 227.892 532.459 208.184 532.459 208.184Z" fill="white"/>
</mask>
<g mask="url(#mask8)">
<path fill-rule="evenodd" clip-rule="evenodd" d="M525.5 213.75C525.5 213.75 527.5 215.75 538.5 215.75C549.5 215.75 553.5 215.75 553.5 215.75C553.5 215.75 543.5 235.75 530.5 232.75C517.5 229.75 525.5 213.75 525.5 213.75Z" fill="#84A0F8"/>
</g>
</g>
<path fill-rule="evenodd" clip-rule="evenodd" d="M520.484 172.002C521.484 169.002 531.06 157.818 543.484 164.002C555.908 170.185 557.167 177.27 556.484 185.002C555.801 192.734 547.107 194.08 544.484 196.002C541.861 197.924 538.484 198.002 538.484 198.002L535.57 186.187L530.229 181.559C530.229 181.559 518.395 178.268 520.484 172.002Z" fill="#BD3246"/>
<mask id="mask9" mask-type="alpha" maskUnits="userSpaceOnUse" x="520" y="162" width="37" height="37">
<path fill-rule="evenodd" clip-rule="evenodd" d="M520.484 172.002C521.484 169.002 531.06 157.818 543.484 164.002C555.908 170.185 557.167 177.27 556.484 185.002C555.801 192.734 547.107 194.08 544.484 196.002C541.861 197.924 538.484 198.002 538.484 198.002L535.57 186.187L530.229 181.559C530.229 181.559 518.395 178.268 520.484 172.002Z" fill="white"/>
</mask>
<g mask="url(#mask9)">
</g>
<path d="M534.55 194.422L542.5 191.75L543.123 207.547L535.237 207.897L534.55 194.422Z" fill="#FDA181"/>
<path fill-rule="evenodd" clip-rule="evenodd" d="M526.829 175.899C525.668 175.798 524.543 179.901 524.543 179.901C524.543 179.901 524.233 184.033 523.781 185.318C522.358 189.367 520.875 190.648 520.976 191.233C521.184 192.442 525.608 192.101 525.608 192.101C525.608 192.101 525.091 199.916 527.721 201.111C530.351 202.305 535.233 199.514 536.513 198.706C537.793 197.899 542.5 194.75 542.5 194.75C542.5 194.75 538.692 181.565 535.351 179.996C532.01 178.426 528.285 176.027 526.829 175.899Z" fill="#FDA181"/>
<ellipse cx="529.371" cy="185.056" rx="3" ry="3.5" transform="rotate(5 529.371 185.056)" stroke="#3A3771"/>
<ellipse cx="521.375" cy="184.969" rx="2" ry="3.5" transform="rotate(5 521.375 184.969)" stroke="#3A3771"/>
<path d="M523.081 184.969L526.077 184.969" stroke="#3A3771"/>
<path d="M532.026 184.597L537.037 184.512" stroke="#3A3771"/>
<path fill-rule="evenodd" clip-rule="evenodd" d="M529.254 265.012L531.254 281.037H577.703C577.703 281.037 587.806 281.704 589.995 267.09C592.183 252.477 570.312 210.518 567.245 208.994C564.179 207.471 558.633 207.729 556.057 212.528C553.481 217.327 568.245 263.145 568.245 263.145L529.254 265.012Z" fill="#3A3771"/>
<path d="M471.395 280.167C471.395 275.196 475.424 271.167 480.395 271.167H487.395C492.365 271.167 496.395 275.196 496.395 280.167H471.395Z" fill="white"/>
<path fill-rule="evenodd" clip-rule="evenodd" d="M530.58 269.027L507.898 270.231L481.395 268.12L482.391 270.813L492.198 272.716L482.391 280.266H531.58L530.58 269.027Z" fill="#FDA181"/>
<path d="M567.246 263.145L574.158 262.915" stroke="#252253"/>
<path d="M536.895 276.056L534.895 259.369" stroke="#3A3771"/>
<path d="M329.035 288.841L309.035 459.348" stroke="#2D1D2A" stroke-width="2.99376" stroke-linecap="round"/>
<path d="M388.913 288.841L408.913 459.348" stroke="#2D1D2A" stroke-width="2.99376" stroke-linecap="round"/>
<path d="M314.814 418.434H403.453" stroke="#2D1D2A" stroke-width="2.99376" stroke-linecap="round"/>
<path d="M569.035 288.841L549.035 459.348" stroke="#2D1D2A" stroke-width="2.99376" stroke-linecap="round"/>
<path d="M628.913 288.841L648.913 459.348" stroke="#2D1D2A" stroke-width="2.99376" stroke-linecap="round"/>
<path d="M554.814 418.434H643.453" stroke="#2D1D2A" stroke-width="2.99376" stroke-linecap="round"/>
<path d="M318.5 292.92C318.5 285.658 324.387 279.771 331.649 279.771H637.672C644.934 279.771 650.82 285.658 650.82 292.92C650.82 293.114 650.663 293.271 650.469 293.271H318.851C318.657 293.271 318.5 293.114 318.5 292.92Z" fill="#A26541"/>
<path d="M385.406 293.093C385.406 285.736 391.371 279.771 398.728 279.771L637.499 279.771C644.856 279.771 650.821 285.736 650.821 293.093C650.821 293.191 650.741 293.271 650.643 293.271H385.584C385.486 293.271 385.406 293.191 385.406 293.093Z" fill="url(#paint32_linear)"/>
<circle cx="542.115" cy="188.283" r="4.29382" fill="#FDA181"/>
<path fill-rule="evenodd" clip-rule="evenodd" d="M543.5 167.75C543.5 167.75 541.5 158.75 553.5 158.75C565.5 158.75 558.5 178.75 563.5 181.75C568.5 184.75 571.5 178.75 573.5 181.75C575.5 184.75 567.5 197.75 553.5 188.75C539.5 179.75 543.5 167.75 543.5 167.75Z" fill="#BD3246"/>
<rect x="481" y="88.5" width="101" height="12" rx="1" fill="#A26541"/>
<rect x="505" y="88.5" width="131" height="12" rx="1" fill="url(#paint33_linear)"/>
<path fill-rule="evenodd" clip-rule="evenodd" d="M592.355 61.9563C592.355 61.9563 592.675 48.8854 593.247 42.5536C593.753 36.9613 592.216 34.7753 593.177 30.1801C594.139 25.5849 599.192 19.3007 600.507 16.3954C603.592 9.57822 605.853 5.66976 607.608 7.18871C609.304 8.6567 610.15 14.4181 608.837 20.3918C607.867 24.8046 604.315 28.2436 602.607 32.4809C601.22 35.9197 602.044 39.0155 601.02 45.3312C599.996 51.6468 595.291 60.9427 595.291 60.9427C595.291 60.9427 594.459 61.522 594 61.6805C593.541 61.839 592.355 61.9563 592.355 61.9563Z" fill="url(#paint34_linear)"/>
<path fill-rule="evenodd" clip-rule="evenodd" d="M592.336 61.9099C592.336 61.9099 591.909 53.6649 591.455 48.6134C591.054 44.1519 592.286 40.8113 591.52 37.1456C590.753 33.4799 591.237 35.6509 586.509 30.4205C581.781 25.1901 581.781 19.8858 577.991 19.8858C574.202 19.8858 576.864 28.0593 578.924 32.1535C580.985 36.2477 582.612 35.607 583.976 38.9867C585.084 41.7296 584.422 45.7957 585.237 50.834C586.052 55.8723 589.114 61.3845 589.114 61.3845C589.114 61.3845 589.997 61.8028 590.733 61.9131C591.469 62.0234 592.336 61.9099 592.336 61.9099Z" fill="url(#paint35_linear)"/>
<path fill-rule="evenodd" clip-rule="evenodd" d="M582.341 62.4118C582.341 61.5281 583.057 60.8118 583.941 60.8118H601.304C602.188 60.8118 602.904 61.5281 602.904 62.4118V83.4539C602.904 86.5611 600.385 89.08 597.278 89.08H587.967C584.86 89.08 582.341 86.5611 582.341 83.4539L582.341 62.4118Z" fill="url(#paint36_linear)"/>
<rect x="472.046" y="81.1494" width="55.4516" height="7.77139" rx="1.5552" fill="#5097FF"/>
<path fill-rule="evenodd" clip-rule="evenodd" d="M471.515 82.7065H497.897C498.755 82.7065 499.452 83.4028 499.452 84.2617V86.005C499.452 86.8639 498.755 87.5602 497.897 87.5602H471.515V82.7065Z" fill="#F6F6F6"/>
<rect x="496.346" y="81.1494" width="55.4516" height="7.77139" rx="1.5552" fill="url(#paint37_linear)"/>
<rect x="476.91" y="73.3782" width="55.4516" height="7.77139" rx="1.5552" fill="#D74D4E"/>
<path fill-rule="evenodd" clip-rule="evenodd" d="M476.915 74.6067H530.297C531.156 74.6067 531.852 75.303 531.852 76.1619V78.1229C531.852 78.9818 531.156 79.6781 530.297 79.6781H476.915V74.6067Z" fill="#F6F6F6"/>
<rect x="501.211" y="73.3782" width="55.4516" height="7.77139" rx="1.5552" fill="#D74D4E"/>
<rect x="470.101" y="65.6067" width="55.4516" height="7.77139" rx="1.5552" fill="#71EEC8"/>
<path d="M470.101 67.4067H523.997C524.856 67.4067 525.552 68.103 525.552 68.9619V70.0229C525.552 70.8818 524.856 71.5781 523.997 71.5781H470.101V67.4067Z" fill="#F6F6F6"/>
<rect x="494.4" y="65.6067" width="55.4516" height="7.77139" rx="1.5552" fill="url(#paint38_linear)"/>
<rect x="159" y="118" width="41" height="26" rx="3" fill="#F6F6FB"/>
<rect x="107.5" y="31.75" width="41" height="26" rx="3" fill="#F6F6FB"/>
<rect x="512" width="41" height="26" rx="3" fill="#F6F6FB"/>
<rect x="595" y="138" width="41" height="26" rx="3" fill="#F6F6FB"/>
<path fill-rule="evenodd" clip-rule="evenodd" d="M19.4404 393.3C11.9236 389.602 6.62162 392.178 6.44891 395.473C6.2762 398.769 10.7853 396.802 17.2036 400.443C23.6218 404.084 29.9249 409.922 29.9249 409.922C29.9249 409.922 26.9571 396.998 19.4404 393.3Z" fill="url(#paint39_linear)"/>
<path fill-rule="evenodd" clip-rule="evenodd" d="M33.5358 422.237C33.5358 422.237 30.9916 412.42 25.4182 410.413C19.8448 408.406 14.3481 408.598 13.3256 410.835C12.303 413.072 14.5401 414.095 20.1135 416.102C25.6869 418.108 33.5358 422.237 33.5358 422.237Z" fill="url(#paint40_linear)"/>
<path fill-rule="evenodd" clip-rule="evenodd" d="M34.1013 431.791C34.1013 431.791 33.1828 425.255 28.5194 423.689C23.856 422.123 19.3458 421.646 18.5626 423.978C17.7795 426.309 20.2643 428.182 24.7746 428.659C29.2848 429.136 34.1013 431.791 34.1013 431.791Z" fill="url(#paint41_linear)"/>
<path fill-rule="evenodd" clip-rule="evenodd" d="M33.74 404.3C37.04 402.1 39.24 387.8 34.84 377.9C30.44 368 23.84 362.5 20.54 362.5C17.24 362.5 19.44 370.2 19.44 374.6C19.44 379 20.54 385.6 23.84 391.1C27.14 396.6 30.44 406.5 33.74 404.3Z" fill="url(#paint42_linear)"/>
<path fill-rule="evenodd" clip-rule="evenodd" d="M37.7578 412.384C37.7578 412.384 43.2578 404.684 50.9578 402.484C58.6578 400.284 63.0578 401.384 64.1578 399.184C65.2578 396.984 54.2578 393.684 47.6578 396.984C41.0578 400.284 37.7578 412.384 37.7578 412.384Z" fill="url(#paint43_linear)"/>
<path fill-rule="evenodd" clip-rule="evenodd" d="M41.749 420.8C41.749 420.8 45.049 416.4 53.849 415.3C62.649 414.2 67.049 416.4 68.149 413.1C69.249 409.8 61.549 407.6 53.849 408.7C46.149 409.8 41.749 420.8 41.749 420.8Z" fill="url(#paint44_linear)"/>
<path fill-rule="evenodd" clip-rule="evenodd" d="M39.8867 429.699C39.8867 429.699 44.2867 426.399 49.7867 425.299C55.2867 424.199 59.6867 425.299 59.6867 423.099C59.6867 420.899 50.8867 419.799 45.3867 421.999C39.8867 424.199 39.8867 429.699 39.8867 429.699Z" fill="url(#paint45_linear)"/>
<path d="M26.9521 406.209C26.9521 406.209 34.6521 413.65 35.7521 418.05" stroke="#F39F91" stroke-width="1.1" stroke-linecap="round" stroke-linejoin="round"/>
<path d="M31.9014 420.8C31.9014 420.8 35.2014 423 36.3014 427.4" stroke="#F0998B" stroke-width="1.1" stroke-linecap="round" stroke-linejoin="round"/>
<path d="M32.4521 430.15C32.4521 430.15 35.7521 433.45 36.8521 435.65" stroke="#F19A8C" stroke-width="1.1" stroke-linecap="round" stroke-linejoin="round"/>
<path d="M42.0304 406.886C42.0304 406.886 35.6697 411.625 36.0727 419.314" stroke="#DE6360" stroke-width="1.1" stroke-linecap="round" stroke-linejoin="round"/>
<path d="M45.6516 416.95C45.6516 416.95 37.9516 422.45 36.8516 429.05" stroke="#DA5656" stroke-width="1.1" stroke-linecap="round" stroke-linejoin="round"/>
<path d="M36.8516 444.45C36.8516 444.45 36.8516 407.05 31.3516 393.85" stroke="#DF6562" stroke-width="1.1" stroke-linecap="round" stroke-linejoin="round"/>
<path d="M41.2516 427.95C41.2516 427.95 36.8516 431.25 36.8516 434.55" stroke="#D85151" stroke-width="1.1" stroke-linecap="round" stroke-linejoin="round"/>
<rect x="26.5498" y="454.9" width="20.9" height="6.6" fill="url(#paint46_linear)"/>
<path fill-rule="evenodd" clip-rule="evenodd" d="M19.9492 437.3H54.0492L49.6492 457.1H24.3492L19.9492 437.3Z" fill="url(#paint47_linear)"/>
<path d="M242 48.5H266" stroke="#DAE2EB" stroke-width="2" stroke-linecap="round" stroke-linejoin="round"/>
<path d="M242 55.5H266" stroke="#DAE2EB" stroke-width="2" stroke-linecap="round" stroke-linejoin="round"/>
<path d="M242 62.5H256.063" stroke="#DAE2EB" stroke-width="2" stroke-linecap="round" stroke-linejoin="round"/>
<path d="M399.5 54.7109H423.5" stroke="#DAE2EB" stroke-width="2" stroke-linecap="round" stroke-linejoin="round"/>
<path d="M399.5 61.7109H423.5" stroke="#DAE2EB" stroke-width="2" stroke-linecap="round" stroke-linejoin="round"/>
<path d="M399.5 68.7109H423.5" stroke="#DAE2EB" stroke-width="2" stroke-linecap="round" stroke-linejoin="round"/>
<path d="M300.057 114.578H324.057" stroke="#DAE2EB" stroke-width="2" stroke-linecap="round" stroke-linejoin="round"/>
<path d="M300.057 121.578H312.057" stroke="#DAE2EB" stroke-width="2" stroke-linecap="round" stroke-linejoin="round"/>
<path d="M300.057 128.578H318.889" stroke="#DAE2EB" stroke-width="2" stroke-linecap="round" stroke-linejoin="round"/>
<path fill-rule="evenodd" clip-rule="evenodd" d="M740 341H735V346H740V341ZM740 351H735V356H740V351ZM725 351H730V356H725V351ZM740 361H735V366H740V361ZM725 361H730V366H725V361ZM720 361H715V366H720V361ZM735 371H740V376H735V371ZM730 371H725V376H730V371ZM715 371H720V376H715V371ZM710 371H705V376H710V371ZM735 381H740V386H735V381ZM730 381H725V386H730V381ZM715 381H720V386H715V381ZM710 381H705V386H710V381ZM695 381H700V386H695V381Z" fill="white"/>
<path d="M439 214.221L443.557 219L455 207" stroke="white" stroke-width="4"/>
<defs>
<filter id="filter0_d" x="241.642" y="162.04" width="61.2" height="71.8404" filterUnits="userSpaceOnUse" color-interpolation-filters="sRGB">
<feFlood flood-opacity="0" result="BackgroundImageFix"/>
<feColorMatrix in="SourceAlpha" type="matrix" values="0 0 0 0 0 0 0 0 0 0 0 0 0 0 0 0 0 0 127 0"/>
<feOffset dy="10"/>
<feGaussianBlur stdDeviation="12"/>
<feColorMatrix type="matrix" values="0 0 0 0 0.397951 0 0 0 0 0.457642 0 0 0 0 0.537229 0 0 0 0.191604 0"/>
<feBlend mode="normal" in2="BackgroundImageFix" result="effect1_dropShadow"/>
<feBlend mode="normal" in="SourceGraphic" in2="effect1_dropShadow" result="shape"/>
</filter>
<filter id="filter1_d" x="223.755" y="149.699" width="80.0614" height="75.7406" filterUnits="userSpaceOnUse" color-interpolation-filters="sRGB">
<feFlood flood-opacity="0" result="BackgroundImageFix"/>
<feColorMatrix in="SourceAlpha" type="matrix" values="0 0 0 0 0 0 0 0 0 0 0 0 0 0 0 0 0 0 127 0"/>
<feOffset dy="10"/>
<feGaussianBlur stdDeviation="12"/>
<feColorMatrix type="matrix" values="0 0 0 0 0.397951 0 0 0 0 0.457642 0 0 0 0 0.537229 0 0 0 0.191604 0"/>
<feBlend mode="normal" in2="BackgroundImageFix" result="effect1_dropShadow"/>
<feBlend mode="normal" in="SourceGraphic" in2="effect1_dropShadow" result="shape"/>
</filter>
<linearGradient id="paint0_linear" x1="211" y1="29.9653" x2="211" y2="181.5" gradientUnits="userSpaceOnUse">
<stop stop-color="#F3F6F9"/>
<stop offset="1" stop-color="#E4EAF1"/>
</linearGradient>
<linearGradient id="paint1_linear" x1="249.211" y1="58.0162" x2="222.087" y2="137.864" gradientUnits="userSpaceOnUse">
<stop stop-color="#6FD6B4"/>
<stop offset="1" stop-color="#FEFFB5"/>
</linearGradient>
<linearGradient id="paint2_linear" x1="348.135" y1="121.578" x2="348.135" y2="144.5" gradientUnits="userSpaceOnUse">
<stop stop-color="#6FBDFF"/>
<stop offset="1" stop-color="#3C88FE"/>
</linearGradient>
<linearGradient id="paint3_linear" x1="398.135" y1="121.578" x2="398.135" y2="144.5" gradientUnits="userSpaceOnUse">
<stop stop-color="#6FBDFF"/>
<stop offset="1" stop-color="#3C88FE"/>
</linearGradient>
<linearGradient id="paint4_linear" x1="147.831" y1="134.644" x2="221.973" y2="170.297" gradientUnits="userSpaceOnUse">
<stop stop-color="#6382E5"/>
<stop offset="1" stop-color="#8EA8EC"/>
</linearGradient>
<linearGradient id="paint5_linear" x1="116.097" y1="121.58" x2="217.866" y2="175.711" gradientUnits="userSpaceOnUse">
<stop stop-color="#7D9AF7"/>
<stop offset="1" stop-color="#B0C6FF"/>
</linearGradient>
<linearGradient id="paint6_linear" x1="127.648" y1="126.406" x2="99.5912" y2="135.32" gradientUnits="userSpaceOnUse">
<stop stop-color="#91ABFF"/>
<stop offset="1" stop-color="#DEE7FF"/>
</linearGradient>
<linearGradient id="paint7_linear" x1="120.654" y1="164.258" x2="139.426" y2="171.173" gradientUnits="userSpaceOnUse">
<stop stop-color="#91ABFF"/>
<stop offset="1" stop-color="#DEE7FF"/>
</linearGradient>
<linearGradient id="paint8_linear" x1="170.535" y1="129.908" x2="99.453" y2="167.593" gradientUnits="userSpaceOnUse">
<stop stop-color="#FFAF73"/>
<stop offset="1" stop-color="#FFFECC"/>
</linearGradient>
<linearGradient id="paint9_linear" x1="104.002" y1="129.042" x2="178.858" y2="173.659" gradientUnits="userSpaceOnUse">
<stop stop-color="#6382E5"/>
<stop offset="1" stop-color="#8EA8EC"/>
</linearGradient>
<linearGradient id="paint10_linear" x1="153.814" y1="98.9029" x2="227.735" y2="375.209" gradientUnits="userSpaceOnUse">
<stop stop-color="#B78154"/>
<stop offset="1" stop-color="#814A2A"/>
</linearGradient>
<linearGradient id="paint11_linear" x1="159.5" y1="281.689" x2="221.5" y2="281.689" gradientUnits="userSpaceOnUse">
<stop stop-color="#FFAF73"/>
<stop offset="1" stop-color="#FFFECC"/>
</linearGradient>
<linearGradient id="paint12_linear" x1="14.0975" y1="248.317" x2="51.8149" y2="337.273" gradientUnits="userSpaceOnUse">
<stop stop-color="#FFAF73"/>
<stop offset="1" stop-color="#FFFECC"/>
</linearGradient>
<linearGradient id="paint13_linear" x1="-23.2676" y1="236.365" x2="-8.75857" y2="335.079" gradientUnits="userSpaceOnUse">
<stop stop-color="#FFAF73"/>
<stop offset="1" stop-color="#FFFECC"/>
</linearGradient>
<linearGradient id="paint14_linear" x1="115.059" y1="307.643" x2="178.315" y2="276.938" gradientUnits="userSpaceOnUse">
<stop stop-color="#FFAF73"/>
<stop offset="1" stop-color="#FFFECC"/>
</linearGradient>
<linearGradient id="paint15_linear" x1="167.799" y1="270.768" x2="171.032" y2="285.685" gradientUnits="userSpaceOnUse">
<stop stop-color="#FDA181"/>
<stop offset="1" stop-color="#EC825D"/>
</linearGradient>
<linearGradient id="paint16_linear" x1="230.123" y1="299.232" x2="240.913" y2="321.376" gradientUnits="userSpaceOnUse">
<stop stop-color="#5C579A" stop-opacity="0.01"/>
<stop offset="1" stop-color="#2F2C61"/>
</linearGradient>
<linearGradient id="paint17_linear" x1="180.025" y1="228.863" x2="83.8821" y2="368.485" gradientUnits="userSpaceOnUse">
<stop stop-color="#60B2F8"/>
<stop offset="1" stop-color="#2B76EC"/>
</linearGradient>
<linearGradient id="paint18_linear" x1="210.508" y1="303.279" x2="218.446" y2="343.213" gradientUnits="userSpaceOnUse">
<stop stop-color="#5C579A" stop-opacity="0.01"/>
<stop offset="1" stop-color="#2F2C61"/>
</linearGradient>
<linearGradient id="paint19_linear" x1="185" y1="298.418" x2="185" y2="450.5" gradientUnits="userSpaceOnUse">
<stop stop-color="#6FBDFF"/>
<stop offset="1" stop-color="#3C88FE"/>
</linearGradient>
<linearGradient id="paint20_linear" x1="-724.098" y1="242.287" x2="-723.55" y2="328.003" gradientUnits="userSpaceOnUse">
<stop stop-color="#B78154"/>
<stop offset="1" stop-color="#814A2A"/>
</linearGradient>
<linearGradient id="paint21_linear" x1="432.814" y1="98.2355" x2="506.735" y2="374.541" gradientUnits="userSpaceOnUse">
<stop stop-color="#B78154"/>
<stop offset="1" stop-color="#814A2A"/>
</linearGradient>
<linearGradient id="paint22_linear" x1="429.5" y1="281.021" x2="491.5" y2="281.021" gradientUnits="userSpaceOnUse">
<stop stop-color="#FFAF73"/>
<stop offset="1" stop-color="#FFFECC"/>
</linearGradient>
<linearGradient id="paint23_linear" x1="284.097" y1="247.65" x2="321.815" y2="336.606" gradientUnits="userSpaceOnUse">
<stop stop-color="#FFAF73"/>
<stop offset="1" stop-color="#FFFECC"/>
</linearGradient>
<linearGradient id="paint24_linear" x1="246.732" y1="235.698" x2="261.241" y2="334.412" gradientUnits="userSpaceOnUse">
<stop stop-color="#FFAF73"/>
<stop offset="1" stop-color="#FFFECC"/>
</linearGradient>
<linearGradient id="paint25_linear" x1="385.059" y1="306.975" x2="448.315" y2="276.27" gradientUnits="userSpaceOnUse">
<stop stop-color="#FFAF73"/>
<stop offset="1" stop-color="#FFFECC"/>
</linearGradient>
<linearGradient id="paint26_linear" x1="437.799" y1="270.1" x2="441.032" y2="285.017" gradientUnits="userSpaceOnUse">
<stop stop-color="#FDA181"/>
<stop offset="1" stop-color="#EC825D"/>
</linearGradient>
<linearGradient id="paint27_linear" x1="473.727" y1="476.536" x2="507.529" y2="455.892" gradientUnits="userSpaceOnUse">
<stop stop-color="#FDA181"/>
<stop offset="1" stop-color="#EC825D"/>
</linearGradient>
<linearGradient id="paint28_linear" x1="500.657" y1="711.48" x2="918.139" y2="497.555" gradientUnits="userSpaceOnUse">
<stop stop-color="#BCE0FF"/>
<stop offset="1" stop-color="#2C77EB"/>
</linearGradient>
<linearGradient id="paint29_linear" x1="500.123" y1="298.564" x2="510.913" y2="320.708" gradientUnits="userSpaceOnUse">
<stop stop-color="#5C579A" stop-opacity="0.01"/>
<stop offset="1" stop-color="#2F2C61"/>
</linearGradient>
<linearGradient id="paint30_linear" x1="576.134" y1="371.519" x2="753.085" y2="287.27" gradientUnits="userSpaceOnUse">
<stop stop-color="#BEE1FF"/>
<stop offset="1" stop-color="#3C88FE"/>
</linearGradient>
<linearGradient id="paint31_linear" x1="480.508" y1="302.611" x2="488.446" y2="342.545" gradientUnits="userSpaceOnUse">
<stop stop-color="#5C579A" stop-opacity="0.01"/>
<stop offset="1" stop-color="#2F2C61"/>
</linearGradient>
<linearGradient id="paint32_linear" x1="-454.098" y1="241.62" x2="-453.55" y2="327.336" gradientUnits="userSpaceOnUse">
<stop stop-color="#B78154"/>
<stop offset="1" stop-color="#814A2A"/>
</linearGradient>
<linearGradient id="paint33_linear" x1="285.899" y1="80.8605" x2="286.422" y2="128.369" gradientUnits="userSpaceOnUse">
<stop stop-color="#B78154"/>
<stop offset="1" stop-color="#814A2A"/>
</linearGradient>
<linearGradient id="paint34_linear" x1="606.983" y1="57.6137" x2="580.525" y2="12.774" gradientUnits="userSpaceOnUse">
<stop stop-color="#FF895B"/>
<stop offset="1" stop-color="#FFEC9E"/>
</linearGradient>
<linearGradient id="paint35_linear" x1="578.068" y1="59.299" x2="597.145" y2="19.8592" gradientUnits="userSpaceOnUse">
<stop stop-color="#FF895B"/>
<stop offset="1" stop-color="#FFEC9E"/>
</linearGradient>
<linearGradient id="paint36_linear" x1="582.341" y1="60.8118" x2="582.341" y2="89.08" gradientUnits="userSpaceOnUse">
<stop stop-color="#F3F6F9"/>
<stop offset="1" stop-color="#E4EAF1"/>
</linearGradient>
<linearGradient id="paint37_linear" x1="496.346" y1="81.1494" x2="496.346" y2="88.9208" gradientUnits="userSpaceOnUse">
<stop stop-color="#6FBDFF"/>
<stop offset="1" stop-color="#3C88FE"/>
</linearGradient>
<linearGradient id="paint38_linear" x1="397.818" y1="61.0087" x2="396.384" y2="91.1357" gradientUnits="userSpaceOnUse">
<stop stop-color="#6FD6B4"/>
<stop offset="1" stop-color="#FEFFB5"/>
</linearGradient>
<linearGradient id="paint39_linear" x1="15.2517" y1="388.817" x2="6.08053" y2="406.217" gradientUnits="userSpaceOnUse">
<stop stop-color="#FFC4AF"/>
<stop offset="1" stop-color="#D74D4E"/>
</linearGradient>
<linearGradient id="paint40_linear" x1="19.9158" y1="406.761" x2="14.1763" y2="421.249" gradientUnits="userSpaceOnUse">
<stop stop-color="#FFC4AF"/>
<stop offset="1" stop-color="#D74D4E"/>
</linearGradient>
<linearGradient id="paint41_linear" x1="22.909" y1="420.37" x2="19.1113" y2="432.119" gradientUnits="userSpaceOnUse">
<stop stop-color="#FFC4AF"/>
<stop offset="1" stop-color="#D74D4E"/>
</linearGradient>
<linearGradient id="paint42_linear" x1="25.2043" y1="355.788" x2="0.837701" y2="372.635" gradientUnits="userSpaceOnUse">
<stop stop-color="#FFC4AF"/>
<stop offset="1" stop-color="#D74D4E"/>
</linearGradient>
<linearGradient id="paint43_linear" x1="46.9944" y1="392.911" x2="39.7681" y2="410.761" gradientUnits="userSpaceOnUse">
<stop stop-color="#FFC4AF"/>
<stop offset="1" stop-color="#D74D4E"/>
</linearGradient>
<linearGradient id="paint44_linear" x1="50.9957" y1="406.44" x2="46.7999" y2="420.509" gradientUnits="userSpaceOnUse">
<stop stop-color="#FFC4AF"/>
<stop offset="1" stop-color="#D74D4E"/>
</linearGradient>
<linearGradient id="paint45_linear" x1="46.7941" y1="419.382" x2="43.8769" y2="429.552" gradientUnits="userSpaceOnUse">
<stop stop-color="#FFC4AF"/>
<stop offset="1" stop-color="#D74D4E"/>
</linearGradient>
<linearGradient id="paint46_linear" x1="26.5498" y1="454.9" x2="26.5498" y2="461.5" gradientUnits="userSpaceOnUse">
<stop stop-color="#6FBDFF"/>
<stop offset="1" stop-color="#3C88FE"/>
</linearGradient>
<linearGradient id="paint47_linear" x1="19.9492" y1="437.3" x2="19.9492" y2="457.1" gradientUnits="userSpaceOnUse">
<stop stop-color="#6FBDFF"/>
<stop offset="1" stop-color="#3C88FE"/>
</linearGradient>
</defs>
</svg>
