<?xml version="1.0" encoding="utf-8"?>
<!-- Generator: Adobe Illustrator 16.0.0, SVG Export Plug-In . SVG Version: 6.00 Build 0)  -->
<!DOCTYPE svg PUBLIC "-//W3C//DTD SVG 1.1//EN" "http://www.w3.org/Graphics/SVG/1.1/DTD/svg11.dtd">
<svg version="1.1" id="Layer_1" xmlns="http://www.w3.org/2000/svg" xmlns:xlink="http://www.w3.org/1999/xlink" x="0px" y="0px"
	 width="1000px" height="1000px" viewBox="0 0 1000 1000" enable-background="new 0 0 1000 1000" xml:space="preserve">
<g>
	<g>
		<g>
			<path fill="#003263" d="M718.75,443.259c-4.506-11.401-17.401-16.984-28.806-12.482c-11.401,4.508-16.988,17.405-12.481,28.806
				c11.281,28.53,16.998,58.684,16.998,89.625c0,134.409-109.348,243.761-243.76,243.761
				c-134.421,0-243.784-109.352-243.784-243.761c0-134.409,109.363-243.761,243.784-243.761c31.05,0,61.254,5.754,89.775,17.102
				c11.388,4.538,24.298-1.029,28.831-12.417c4.534-11.392-1.026-24.3-12.417-28.832c-33.766-13.438-69.494-20.25-106.187-20.25
				c-158.901,0-288.181,129.265-288.181,288.156c0,158.89,129.274,288.156,288.179,288.156
				c158.888,0,288.156-129.265,288.156-288.155C738.856,512.654,732.09,477.009,718.75,443.259z"/>
		</g>
	</g>
	<g>
		<g>
			<path fill="#003263" d="M855.604,433.12c-3.372-11.787-15.653-18.599-27.447-15.234c-11.787,3.374-18.607,15.663-15.235,27.448
				c9.622,33.633,14.502,68.583,14.502,103.871c0,207.739-168.998,376.752-376.725,376.752c-207.74,0-376.75-169.011-376.75-376.752
				c0-207.743,169.008-376.75,376.75-376.75c35.368,0,70.376,4.901,104.046,14.569c11.785,3.381,24.079-3.425,27.461-15.21
				c3.383-11.785-3.426-24.08-15.211-27.461c-37.652-10.813-76.782-16.296-116.296-16.296
				c-232.221,0.002-421.147,188.927-421.147,421.15c0,232.221,188.926,421.148,421.147,421.148
				c232.207,0,421.122-188.926,421.122-421.148C871.82,509.783,866.364,470.726,855.604,433.12z"/>
		</g>
	</g>
	<g>
		<g>
			<path fill="#EE3D40" d="M605.26,535.652c-1.088-12.211-11.877-21.179-24.083-20.137c-12.212,1.089-21.229,11.873-20.138,24.084
				c0.281,3.161,0.425,6.394,0.425,9.607c0,61.08-49.691,110.768-110.767,110.768c-61.092,0-110.794-49.691-110.794-110.768
				c0.003-61.094,49.704-110.794,110.796-110.794c3.413,0,6.753,0.149,9.935,0.441c12.219,1.121,23.017-7.858,24.144-20.067
				c1.125-12.208-7.86-23.015-20.067-24.144c-4.528-0.417-9.242-0.628-14.009-0.628c-85.572,0-155.191,69.615-155.191,155.19
				c0,85.559,69.619,155.163,155.191,155.163c85.557,0,155.164-69.604,155.164-155.163
				C605.862,544.681,605.66,540.118,605.26,535.652z"/>
		</g>
	</g>
	<g>
		<g>
			<path fill="#EE3D40" d="M967.048,178.889c-6.897-16.653-23.003-27.415-41.028-27.415h-77.402V74.074
				c0-18.028-10.761-34.132-27.414-41.028c-16.646-6.895-35.635-3.115-48.377,9.627l-129.33,129.331
				C630.923,184.576,624,201.295,624,219.083v125.615L443.594,525.104c-8.668,8.668-8.668,22.725,0,31.395
				c4.333,4.334,10.016,6.502,15.696,6.502s11.362-2.168,15.696-6.502l180.408-180.408h125.615c17.787,0,34.508-6.924,47.078-19.494
				l129.331-129.334C970.164,214.518,973.942,195.532,967.048,178.889z M668.397,219.081c0.002-5.927,2.308-11.499,6.494-15.683
				L804.221,74.087v90.392L668.396,300.305v-81.224H668.397z M796.695,325.202c-4.124,4.124-9.843,6.493-15.685,6.493h-81.219
				l135.822-135.822l90.399,0.011L796.695,325.202z"/>
		</g>
	</g>
</g>
</svg>
